<svg width="24" height="24" viewBox="0 0 24 24" fill="none" xmlns="http://www.w3.org/2000/svg">
<path d="M19.7441 4.75391C21.6484 4.75391 22.625 5.73047 22.625 7.60547V17.8398C22.625 19.7148 21.6484 20.6914 19.9395 20.6914H11.4141C11.6289 20.3105 11.7949 19.9102 11.9121 19.4805H19.9102C20.7988 19.4805 21.4141 18.8945 21.4141 17.7715V7.67383C21.4141 6.54102 20.7988 5.96484 19.7148 5.96484H8.52344C7.42969 5.96484 6.83398 6.54102 6.83398 7.67383V11.7559C6.62891 11.7266 6.42383 11.7168 6.21875 11.7168C6.02344 11.7168 5.81836 11.7266 5.62305 11.7461V7.60547C5.62305 5.7207 6.59961 4.75391 8.50391 4.75391H10.4766C10.6523 2.87891 12.1758 1.45312 14.1191 1.45312C16.0625 1.45312 17.5859 2.87891 17.7715 4.75391H19.7441ZM14.1191 2.60547C12.8203 2.60547 11.8535 3.49414 11.6875 4.75391H16.5508C16.3945 3.49414 15.4277 2.60547 14.1191 2.60547ZM6.22852 22.5469C3.57227 22.5469 1.375 20.3691 1.375 17.6934C1.375 15.0371 3.57227 12.8398 6.22852 12.8398C8.89453 12.8398 11.082 15.0273 11.082 17.6934C11.082 20.3496 8.86523 22.5469 6.22852 22.5469ZM6.22852 20.7793C6.55078 20.7793 6.74609 20.5645 6.74609 20.252V18.2207H8.77734C9.08984 18.2207 9.30469 18.0156 9.30469 17.6934C9.30469 17.3711 9.08984 17.1758 8.77734 17.1758H6.74609V15.1445C6.74609 14.8418 6.55078 14.6172 6.22852 14.6172C5.90625 14.6172 5.70117 14.8418 5.70117 15.1445V17.1758H3.66992C3.36719 17.1758 3.14258 17.3711 3.14258 17.6934C3.14258 18.0156 3.36719 18.2207 3.66992 18.2207H5.70117V20.252C5.70117 20.5645 5.90625 20.7793 6.22852 20.7793Z" fill="black"/>
</svg>
