<svg width="16" height="16" viewBox="0 0 16 16" fill="none" xmlns="http://www.w3.org/2000/svg">
<path d="M4.0968 13.9479C3.86295 13.7711 3.81162 13.4802 3.95421 13.0638L5.14626 9.51616L2.10053 7.32597C1.7469 7.07501 1.59861 6.81264 1.69557 6.52746C1.78683 6.25369 2.0549 6.1168 2.49408 6.1225L6.22995 6.14532L7.36498 2.58055C7.50186 2.15848 7.70719 1.94745 7.99808 1.94745C8.29467 1.94745 8.5 2.15848 8.63688 2.58055L9.77191 6.14532L13.5078 6.1225C13.947 6.1168 14.215 6.25369 14.3063 6.52746C14.3975 6.81264 14.255 7.07501 13.9013 7.32597L10.8556 9.51616L12.0477 13.0638C12.1902 13.4802 12.1389 13.7711 11.9051 13.9479C11.6655 14.1304 11.3746 14.0677 11.021 13.811L7.99808 11.5923L4.98086 13.811C4.62723 14.0677 4.33065 14.1304 4.0968 13.9479ZM7.99808 10.6113C8.10074 10.6056 8.1977 10.6455 8.28896 10.7139L11.0324 12.8072C11.0552 12.8243 11.0723 12.8357 11.0837 12.8186C11.0951 12.8072 11.0894 12.8015 11.0837 12.7672L9.94872 9.50475C9.86887 9.28231 9.9145 9.1055 10.1141 8.96861L12.9545 7.00657C12.9773 6.98945 12.9888 6.97805 12.983 6.96094C12.9773 6.94383 12.9659 6.94383 12.9317 6.94383L9.48102 7.00657C9.24717 7.01227 9.09888 6.91531 9.02473 6.68146L8.0323 3.37906C8.0266 3.34484 8.01519 3.33343 7.99808 3.33343V10.6113Z" fill="#F1CA4B"/>
</svg>
