<svg width="13" height="13" viewBox="0 0 13 13" fill="none" xmlns="http://www.w3.org/2000/svg">
<path d="M2.43029 12.0004C2.19644 11.8236 2.14511 11.5327 2.2877 11.1164L3.47976 7.56871L0.434024 5.37852C0.080399 5.12756 -0.0678953 4.86519 0.0290663 4.58001C0.120324 4.30624 0.388395 4.17505 0.827574 4.17505H4.56345L5.69847 0.633103C5.83536 0.211034 6.04069 0 6.33157 0C6.62816 0 6.83349 0.211034 6.97038 0.633103L8.1054 4.17505H11.8413C12.2805 4.17505 12.5485 4.30624 12.6398 4.58001C12.731 4.86519 12.5885 5.12756 12.2348 5.37852L9.18909 7.56871L10.3811 11.1164C10.5237 11.5327 10.4724 11.8236 10.2386 12.0004C9.99901 12.1829 9.70812 12.1202 9.3545 11.8635L6.33157 9.64483L3.31436 11.8635C2.96073 12.1202 2.66414 12.1829 2.43029 12.0004Z" fill="#F1CA4B"/>
</svg>
